<?xml version="1.0" encoding="utf-8"?>
<!-- Generator: Adobe Illustrator 24.0.0, SVG Export Plug-In . SVG Version: 6.00 Build 0)  -->
<svg version="1.1" id="Layer_1" xmlns="http://www.w3.org/2000/svg" xmlns:xlink="http://www.w3.org/1999/xlink" x="0px" y="0px"
	 width="21px" height="24px" viewBox="0 0 21 24" enable-background="new 0 0 21 24" xml:space="preserve">
<g>
	<path fill="#CCCCCC" d="M20.61,4.976L19.9,5.415c0.399,4.166,0.468,7.624,0.135,8.587c-0.265,0.766-0.981,1.801-1.915,2.888
		c-1.64,1.909-3.95,3.982-5.665,5.051c-0.773,0.482-1.429,0.881-1.955,1.191c-0.529-0.311-1.184-0.711-1.955-1.191
		c-1.715-1.069-4.026-3.142-5.665-5.052c-0.934-1.087-1.65-2.122-1.914-2.887C0.632,13.039,0.701,9.581,1.1,5.415
		C1.178,4.6,1.268,3.759,1.371,2.904L10.5,0.77l0-0.77L0.69,2.293c-0.106,0.849-0.208,1.758-0.3,2.684
		c-0.381,3.846-0.582,7.976-0.134,9.271c0.294,0.85,1.063,1.969,2.058,3.131c1.699,1.984,4.058,4.093,5.834,5.2
		c1.156,0.72,1.894,1.159,2.352,1.422c0.459-0.263,1.196-0.702,2.352-1.422c1.776-1.107,4.134-3.215,5.833-5.199
		c0.995-1.162,1.765-2.281,2.059-3.131C21.192,12.952,20.991,8.822,20.61,4.976z"/>
	<linearGradient id="SVGID_1_" gradientUnits="userSpaceOnUse" x1="10.5" y1="23.4219" x2="10.5" y2="0.5137">
		<stop  offset="0" style="stop-color:#1A1A1A"/>
		<stop  offset="1" style="stop-color:#333333"/>
	</linearGradient>
	<path fill="url(#SVGID_1_)" d="M10.5,23.422c-0.46-0.269-1.129-0.671-2.088-1.269c-2.724-1.698-6.939-5.916-7.684-8.069
		C0.254,12.712,0.575,7.385,1.143,2.7L10.5,0.514L19.856,2.7c0.569,4.684,0.89,10.011,0.415,11.384
		c-0.744,2.152-4.96,6.371-7.685,8.07C11.629,22.751,10.96,23.153,10.5,23.422z"/>
	<g>
		<linearGradient id="SVGID_2_" gradientUnits="userSpaceOnUse" x1="15.5549" y1="26.2789" x2="15.5549" y2="9.5858">
			<stop  offset="0" style="stop-color:#4D4D4D"/>
			<stop  offset="0.65" style="stop-color:#999999"/>
		</linearGradient>
		<path fill="url(#SVGID_2_)" d="M20.61,4.976c-0.092-0.925-0.194-1.834-0.3-2.683L10.5,0l0.002,3.081l7.071,1.652
			c0.073,0.7,0.136,1.37,0.189,2.004L20.61,4.976z"/>
	</g>
	<radialGradient id="SVGID_3_" cx="10.5" cy="10.9469" r="6.4641" gradientUnits="userSpaceOnUse">
		<stop  offset="0" style="stop-color:#333333"/>
		<stop  offset="1" style="stop-color:#1A1A1A"/>
	</radialGradient>
	<path fill="url(#SVGID_3_)" d="M9.737,20.032c-2.544-1.587-6.188-5.445-6.644-6.765C2.919,12.585,2.952,9.31,3.431,4.733
		l7.071-1.652l7.071,1.652c0.479,4.577,0.511,7.855,0.325,8.574c-0.444,1.279-4.088,5.139-6.632,6.726
		c-0.279,0.174-0.533,0.331-0.764,0.473C10.271,20.363,10.016,20.206,9.737,20.032z"/>
	<radialGradient id="SVGID_4_" cx="10.4555" cy="11.2588" r="7.0866" gradientUnits="userSpaceOnUse">
		<stop  offset="0" style="stop-color:#FFFFFF"/>
		<stop  offset="1" style="stop-color:#FFFFFF;stop-opacity:0"/>
	</radialGradient>
	<path opacity="0.3" fill="url(#SVGID_4_)" d="M9.737,20.032c-2.544-1.587-6.188-5.445-6.644-6.765
		C2.919,12.585,2.952,9.31,3.431,4.733l7.071-1.652l7.071,1.652c0.479,4.577,0.511,7.855,0.325,8.574
		c-0.444,1.279-4.088,5.139-6.632,6.726c-0.279,0.174-0.533,0.331-0.764,0.473C10.271,20.363,10.016,20.206,9.737,20.032z"/>
	<linearGradient id="SVGID_5_" gradientUnits="userSpaceOnUse" x1="5.25" y1="-1.8718" x2="5.25" y2="23.8276">
		<stop  offset="0" style="stop-color:#FFFFFF"/>
		<stop  offset="1" style="stop-color:#FFFFFF;stop-opacity:0"/>
	</linearGradient>
	<path opacity="0.25" fill="url(#SVGID_5_)" d="M10.5,0L0.69,2.293C0.143,6.672-0.299,12.64,0.256,14.247
		c0.795,2.301,5.076,6.575,7.892,8.331c1.156,0.72,1.894,1.159,2.352,1.422L10.5,0L10.5,0z"/>
	<g>
		<g>
			<path fill="#FFFFFF" d="M8.251,13.952v-0.949h1.768V7.166H8.498V6.152h2.587v6.851h1.664v0.949H8.251z"/>
		</g>
	</g>
	<linearGradient id="SVGID_6_" gradientUnits="userSpaceOnUse" x1="10.5" y1="21.0928" x2="10.5" y2="2.5674">
		<stop  offset="0" style="stop-color:#C6C6C6"/>
		<stop  offset="0.114" style="stop-color:#C4C4C4"/>
		<stop  offset="0.1619" style="stop-color:#BDBDBD"/>
		<stop  offset="0.1869" style="stop-color:#B5B5B5"/>
		<stop  offset="1" style="stop-color:#5C5C5C"/>
	</linearGradient>
	<path opacity="0.4" fill="url(#SVGID_6_)" d="M10.5,3.081l7.071,1.652c0.506,4.823,0.495,7.918,0.337,8.536
		c-0.457,1.32-4.101,5.178-6.643,6.763l-0.766,0.473l-0.763-0.472c-2.545-1.587-6.189-5.446-6.633-6.727
		c-0.195-0.76-0.126-4.253,0.326-8.573L10.5,3.081 M10.5,2.567l-7.531,1.76L2.932,4.681c-0.464,4.432-0.53,7.909-0.313,8.75
		c0.533,1.542,4.375,5.481,6.853,7.026l1.028,0.636l1.029-0.636c2.667-1.662,6.354-5.583,6.853-7.024
		c0.208-0.808,0.17-4.149-0.313-8.751l-0.037-0.354L10.5,2.567L10.5,2.567z"/>
</g>
</svg>
