<?xml version="1.0" encoding="utf-8"?>
<!-- Generator: Adobe Illustrator 24.0.0, SVG Export Plug-In . SVG Version: 6.00 Build 0)  -->
<svg version="1.1" id="Layer_1" xmlns="http://www.w3.org/2000/svg" xmlns:xlink="http://www.w3.org/1999/xlink" x="0px" y="0px"
	 width="21px" height="24px" viewBox="0 0 21 24" enable-background="new 0 0 21 24" xml:space="preserve">
<g>
	<linearGradient id="SVGID_1_" gradientUnits="userSpaceOnUse" x1="10.5" y1="23.4219" x2="10.5" y2="0.5137">
		<stop  offset="0" style="stop-color:#1A1A1A"/>
		<stop  offset="1" style="stop-color:#333333"/>
	</linearGradient>
	<path fill="url(#SVGID_1_)" d="M10.5,23.422c-0.46-0.269-1.129-0.671-2.088-1.269c-2.724-1.698-6.939-5.916-7.684-8.069
		C0.254,12.712,0.575,7.385,1.143,2.7L10.5,0.514L19.856,2.7c0.569,4.684,0.89,10.011,0.415,11.384
		c-0.744,2.152-4.96,6.371-7.685,8.07C11.629,22.751,10.96,23.153,10.5,23.422z"/>
	<linearGradient id="SVGID_2_" gradientUnits="userSpaceOnUse" x1="10.5" y1="24" x2="10.5" y2="3.342337e-06">
		<stop  offset="0" style="stop-color:#446005"/>
		<stop  offset="0.65" style="stop-color:#89BF0A"/>
	</linearGradient>
	<path fill="url(#SVGID_2_)" d="M20.61,4.976c-0.092-0.925-0.194-1.834-0.3-2.683L10.5,0h0L0.69,2.293
		c-0.106,0.849-0.208,1.758-0.3,2.684c-0.381,3.846-0.582,7.976-0.134,9.271c0.294,0.85,1.063,1.969,2.058,3.131
		c1.699,1.984,4.058,4.093,5.834,5.2c1.156,0.72,1.894,1.159,2.352,1.422c0.459-0.263,1.196-0.702,2.352-1.422
		c1.776-1.107,4.134-3.215,5.833-5.199c0.995-1.162,1.765-2.281,2.059-3.131C21.192,12.952,20.991,8.822,20.61,4.976z
		 M17.898,13.308c-0.157,0.453-0.715,1.228-1.483,2.112c-1.402,1.614-3.505,3.588-5.15,4.614c-0.279,0.174-0.533,0.331-0.764,0.473
		c-0.231-0.143-0.485-0.3-0.765-0.474c-1.642-1.024-3.742-2.995-5.148-4.618c-0.772-0.892-1.334-1.679-1.496-2.146
		c-0.148-0.578-0.147-3.016,0.148-6.53c0.053-0.635,0.116-1.304,0.19-2.005l7.071-1.652l7.071,1.652
		c0.073,0.7,0.136,1.37,0.189,2.004C18.057,10.253,18.056,12.699,17.898,13.308z"/>
	<radialGradient id="SVGID_3_" cx="10.5" cy="10.9469" r="6.4641" gradientUnits="userSpaceOnUse">
		<stop  offset="0" style="stop-color:#333333"/>
		<stop  offset="1" style="stop-color:#1A1A1A"/>
	</radialGradient>
	<path fill="url(#SVGID_3_)" d="M9.737,20.032c-2.544-1.587-6.188-5.445-6.644-6.765C2.919,12.585,2.952,9.31,3.431,4.733
		l7.071-1.652l7.071,1.652c0.479,4.577,0.511,7.855,0.325,8.574c-0.444,1.279-4.088,5.139-6.632,6.726
		c-0.279,0.174-0.533,0.331-0.764,0.473C10.271,20.363,10.016,20.206,9.737,20.032z"/>
	<radialGradient id="SVGID_4_" cx="10.4555" cy="11.2588" r="7.0866" gradientUnits="userSpaceOnUse">
		<stop  offset="0" style="stop-color:#FFFFFF"/>
		<stop  offset="1" style="stop-color:#FFFFFF;stop-opacity:0"/>
	</radialGradient>
	<path opacity="0.3" fill="url(#SVGID_4_)" d="M9.737,20.032c-2.544-1.587-6.188-5.445-6.644-6.765
		C2.919,12.585,2.952,9.31,3.431,4.733l7.071-1.652l7.071,1.652c0.479,4.577,0.511,7.855,0.325,8.574
		c-0.444,1.279-4.088,5.139-6.632,6.726c-0.279,0.174-0.533,0.331-0.764,0.473C10.271,20.363,10.016,20.206,9.737,20.032z"/>
	<linearGradient id="SVGID_5_" gradientUnits="userSpaceOnUse" x1="5.25" y1="-1.8718" x2="5.25" y2="23.8276">
		<stop  offset="0" style="stop-color:#FFFFFF"/>
		<stop  offset="1" style="stop-color:#FFFFFF;stop-opacity:0"/>
	</linearGradient>
	<path opacity="0.25" fill="url(#SVGID_5_)" d="M10.5,0L0.69,2.293C0.143,6.672-0.299,12.64,0.256,14.247
		c0.795,2.301,5.076,6.575,7.892,8.331c1.156,0.72,1.894,1.159,2.352,1.422L10.5,0L10.5,0z"/>
	<g>
		<path fill="#B6FF0D" d="M4.994,13.92v-0.949h1.769V7.134H5.241V6.12h2.587v6.851h1.664v0.949H4.994z"/>
		<path fill="#B6FF0D" d="M15.784,13.023c-0.104,0.156-0.507,0.559-0.688,0.689c-0.234,0.169-0.572,0.273-0.871,0.273h-1.508
			c-0.677,0-1.248-0.559-1.612-1.04c-0.104-0.13-0.208-0.351-0.364-0.689l1.04-0.273c0.078,0.169,0.13,0.26,0.13,0.26
			c0.156,0.286,0.481,0.585,0.677,0.689c0.064,0.039,0.13,0.039,0.169,0.039h1.456c0.064,0,0.104,0,0.155-0.026
			c0.183-0.091,0.455-0.364,0.546-0.546c0.014-0.026,0.026-0.065,0.026-0.13v-1.417c0-0.065-0.013-0.13-0.026-0.143
			c-0.13-0.221-0.324-0.39-0.546-0.546c-0.039-0.026-0.091-0.026-0.155-0.026h-3.043V6.12h4.434v1.014h-3.367v2.002h1.989
			c0.312,0,0.637,0.104,0.871,0.273c0.182,0.13,0.585,0.52,0.688,0.676c0.144,0.221,0.222,0.481,0.222,0.741v1.456
			C16.006,12.542,15.928,12.802,15.784,13.023z"/>
	</g>
	<g opacity="0.4">
		<linearGradient id="SVGID_6_" gradientUnits="userSpaceOnUse" x1="10.5" y1="21.0928" x2="10.5" y2="2.5674">
			<stop  offset="0" style="stop-color:#C6C6C6"/>
			<stop  offset="0.114" style="stop-color:#C4C4C4"/>
			<stop  offset="0.1619" style="stop-color:#BDBDBD"/>
			<stop  offset="0.1869" style="stop-color:#B5B5B5"/>
			<stop  offset="1" style="stop-color:#5C5C5C"/>
		</linearGradient>
		<path fill="url(#SVGID_6_)" d="M10.5,3.081l7.071,1.652c0.506,4.823,0.495,7.918,0.337,8.536c-0.457,1.32-4.101,5.178-6.643,6.763
			l-0.766,0.473l-0.763-0.472c-2.545-1.587-6.189-5.446-6.633-6.727c-0.195-0.76-0.126-4.253,0.326-8.573L10.5,3.081 M10.5,2.567
			l-7.531,1.76L2.932,4.681c-0.464,4.432-0.53,7.909-0.313,8.75c0.533,1.542,4.375,5.481,6.853,7.026l1.028,0.636l1.029-0.636
			c2.667-1.662,6.354-5.583,6.853-7.024c0.208-0.808,0.17-4.149-0.313-8.751l-0.037-0.354L10.5,2.567L10.5,2.567z"/>
	</g>
</g>
</svg>
